<?xml version="1.0" encoding="UTF-8"?>
<svg xmlns="http://www.w3.org/2000/svg" viewBox="0 0 720 720" width="720" height="720">
  <rect width="720" height="720" fill="#ffffff"/>

  <defs>
    <filter id="singularity" x="-100%" y="-100%" width="300%" height="300%">
      <feGaussianBlur stdDeviation="5" result="blur"/>
      <feMerge>
        <feMergeNode in="blur"/>
        <feMergeNode in="SourceGraphic"/>
      </feMerge>
    </filter>
  </defs>
  <g>
    <circle cx="373.84" cy="362.09" r="23.00" fill="#00E5FF" fill-opacity="0.55"/>
    <circle cx="376.74" cy="364.19" r="22.93" fill="#01E2FE" fill-opacity="0.55"/>
    <circle cx="379.34" cy="366.75" r="22.85" fill="#03E0FE" fill-opacity="0.55"/>
    <circle cx="381.58" cy="369.70" r="22.78" fill="#05DDFE" fill-opacity="0.55"/>
    <circle cx="383.41" cy="372.96" r="22.71" fill="#06DBFE" fill-opacity="0.55"/>
    <circle cx="384.81" cy="376.43" r="22.63" fill="#08D9FD" fill-opacity="0.55"/>
    <circle cx="385.76" cy="380.05" r="22.56" fill="#0AD6FD" fill-opacity="0.55"/>
    <circle cx="386.24" cy="383.73" r="22.49" fill="#0BD4FD" fill-opacity="0.55"/>
    <circle cx="386.25" cy="387.42" r="22.42" fill="#0DD2FD" fill-opacity="0.55"/>
    <circle cx="385.78" cy="391.05" r="22.34" fill="#0FCFFC" fill-opacity="0.55"/>
    <circle cx="384.82" cy="394.58" r="22.27" fill="#10CDFC" fill-opacity="0.55"/>
    <circle cx="383.38" cy="397.94" r="22.20" fill="#12CBFC" fill-opacity="0.55"/>
    <circle cx="381.46" cy="401.09" r="22.12" fill="#14C8FC" fill-opacity="0.55"/>
    <circle cx="379.04" cy="403.97" r="22.05" fill="#16C6FB" fill-opacity="0.55"/>
    <circle cx="376.15" cy="406.54" r="21.98" fill="#17C4FB" fill-opacity="0.55"/>
    <circle cx="372.81" cy="408.72" r="21.90" fill="#19C1FB" fill-opacity="0.55"/>
    <circle cx="369.03" cy="410.46" r="21.83" fill="#1BBFFB" fill-opacity="0.55"/>
    <circle cx="364.86" cy="411.69" r="21.76" fill="#1CBDFA" fill-opacity="0.55"/>
    <circle cx="360.37" cy="412.37" r="21.68" fill="#1EBAFA" fill-opacity="0.55"/>
    <circle cx="355.62" cy="412.43" r="21.61" fill="#20B8FA" fill-opacity="0.55"/>
    <circle cx="350.70" cy="411.84" r="21.54" fill="#21B6FA" fill-opacity="0.55"/>
    <circle cx="345.74" cy="410.57" r="21.47" fill="#23B3F9" fill-opacity="0.55"/>
    <circle cx="340.83" cy="408.62" r="21.39" fill="#25B1F9" fill-opacity="0.55"/>
    <circle cx="336.10" cy="406.00" r="21.32" fill="#27AFF9" fill-opacity="0.55"/>
    <circle cx="331.66" cy="402.76" r="21.25" fill="#28ACF9" fill-opacity="0.55"/>
    <circle cx="327.64" cy="398.97" r="21.17" fill="#2AAAF8" fill-opacity="0.55"/>
    <circle cx="324.10" cy="394.71" r="21.10" fill="#2CA8F8" fill-opacity="0.55"/>
    <circle cx="321.12" cy="390.10" r="21.03" fill="#2DA5F8" fill-opacity="0.55"/>
    <circle cx="318.73" cy="385.25" r="20.95" fill="#2FA3F8" fill-opacity="0.55"/>
    <circle cx="316.94" cy="380.29" r="20.88" fill="#31A1F7" fill-opacity="0.55"/>
    <circle cx="315.73" cy="375.32" r="20.81" fill="#329EF7" fill-opacity="0.55"/>
    <circle cx="315.06" cy="370.43" r="20.74" fill="#349CF7" fill-opacity="0.55"/>
    <circle cx="314.86" cy="365.72" r="20.66" fill="#369AF7" fill-opacity="0.55"/>
    <circle cx="315.04" cy="361.24" r="20.59" fill="#3897F6" fill-opacity="0.82"/>
    <circle cx="315.53" cy="357.02" r="20.52" fill="#3995F6" fill-opacity="0.82"/>
    <circle cx="316.24" cy="353.07" r="20.44" fill="#3B93F6" fill-opacity="0.82"/>
    <circle cx="317.09" cy="349.39" r="20.37" fill="#3D90F6" fill-opacity="0.82"/>
    <circle cx="318.00" cy="345.96" r="20.30" fill="#3E8EF5" fill-opacity="0.82"/>
    <circle cx="318.93" cy="342.73" r="20.22" fill="#408BF5" fill-opacity="0.82"/>
    <circle cx="319.82" cy="339.67" r="20.15" fill="#4289F5" fill-opacity="0.82"/>
    <circle cx="320.63" cy="336.74" r="20.08" fill="#4387F5" fill-opacity="0.82"/>
    <circle cx="321.36" cy="333.87" r="20.00" fill="#4584F4" fill-opacity="0.82"/>
    <circle cx="322.00" cy="331.03" r="19.93" fill="#4782F4" fill-opacity="0.82"/>
    <circle cx="322.54" cy="328.18" r="19.86" fill="#4980F4" fill-opacity="0.82"/>
    <circle cx="323.01" cy="325.26" r="19.79" fill="#4A7DF4" fill-opacity="0.82"/>
    <circle cx="323.44" cy="322.24" r="19.71" fill="#4C7BF3" fill-opacity="0.82"/>
    <circle cx="323.85" cy="319.09" r="19.64" fill="#4E79F3" fill-opacity="0.82"/>
    <circle cx="324.31" cy="315.78" r="19.57" fill="#4F76F3" fill-opacity="0.82"/>
    <circle cx="324.86" cy="312.29" r="19.49" fill="#5174F3" fill-opacity="0.82"/>
    <circle cx="325.58" cy="308.61" r="19.42" fill="#5372F2" fill-opacity="0.82"/>
    <circle cx="326.55" cy="304.73" r="19.35" fill="#546FF2" fill-opacity="0.82"/>
    <circle cx="327.84" cy="300.65" r="19.27" fill="#566DF2" fill-opacity="0.82"/>
    <circle cx="329.54" cy="296.39" r="19.20" fill="#586BF2" fill-opacity="0.82"/>
    <circle cx="331.75" cy="292.00" r="19.13" fill="#5A68F1" fill-opacity="0.82"/>
    <circle cx="334.57" cy="287.51" r="19.05" fill="#5B66F1" fill-opacity="0.82"/>
    <circle cx="338.06" cy="283.01" r="18.98" fill="#5D64F1" fill-opacity="0.82"/>
    <circle cx="342.32" cy="278.59" r="18.91" fill="#5F61F1" fill-opacity="0.82"/>
    <circle cx="347.39" cy="274.36" r="18.84" fill="#605FF0" fill-opacity="0.82"/>
    <circle cx="353.29" cy="270.47" r="18.76" fill="#625DF0" fill-opacity="0.82"/>
    <circle cx="360.04" cy="267.05" r="18.69" fill="#645AF0" fill-opacity="0.82"/>
    <circle cx="367.58" cy="264.26" r="18.62" fill="#6558F0" fill-opacity="0.82"/>
    <circle cx="375.85" cy="262.25" r="18.54" fill="#6756EF" fill-opacity="0.82"/>
    <circle cx="384.72" cy="261.15" r="18.47" fill="#6953EF" fill-opacity="0.82"/>
    <circle cx="394.03" cy="261.08" r="18.40" fill="#6B51EF" fill-opacity="0.82"/>
    <circle cx="403.62" cy="262.11" r="18.32" fill="#6C4FEF" fill-opacity="0.82"/>
    <circle cx="413.26" cy="264.28" r="18.25" fill="#6E4CEE" fill-opacity="0.82"/>
    <circle cx="422.76" cy="267.57" r="18.18" fill="#704AEE" fill-opacity="0.82"/>
    <circle cx="431.90" cy="271.92" r="18.11" fill="#7148EE" fill-opacity="0.82"/>
    <circle cx="440.50" cy="277.24" r="18.03" fill="#7345EE" fill-opacity="0.82"/>
    <circle cx="448.40" cy="283.37" r="17.96" fill="#7543ED" fill-opacity="0.82"/>
    <circle cx="455.48" cy="290.16" r="17.89" fill="#7641ED" fill-opacity="0.82"/>
    <circle cx="461.67" cy="297.43" r="17.81" fill="#783EED" fill-opacity="0.82"/>
    <circle cx="466.91" cy="304.98" r="17.74" fill="#7A3CED" fill-opacity="0.82"/>
    <circle cx="471.21" cy="312.66" r="17.67" fill="#7C3AED" fill-opacity="0.82"/>
    <circle cx="474.61" cy="320.30" r="17.59" fill="#7D3AEB" fill-opacity="0.82"/>
    <circle cx="477.16" cy="327.78" r="17.52" fill="#7F3AEA" fill-opacity="0.82"/>
    <circle cx="478.94" cy="335.01" r="17.45" fill="#803AE9" fill-opacity="0.82"/>
    <circle cx="480.04" cy="341.91" r="17.37" fill="#823AE8" fill-opacity="0.82"/>
    <circle cx="480.54" cy="348.45" r="17.30" fill="#833AE7" fill-opacity="0.82"/>
    <circle cx="480.53" cy="354.63" r="17.23" fill="#853BE6" fill-opacity="0.82"/>
    <circle cx="480.09" cy="360.47" r="17.16" fill="#863BE4" fill-opacity="0.82"/>
    <circle cx="479.29" cy="366.00" r="17.08" fill="#883BE3" fill-opacity="0.82"/>
    <circle cx="478.18" cy="371.30" r="17.01" fill="#893BE2" fill-opacity="0.82"/>
    <circle cx="476.80" cy="376.42" r="16.94" fill="#8B3BE1" fill-opacity="0.82"/>
    <circle cx="475.18" cy="381.44" r="16.86" fill="#8C3CE0" fill-opacity="0.82"/>
    <circle cx="473.33" cy="386.44" r="16.79" fill="#8E3CDF" fill-opacity="0.82"/>
    <circle cx="471.25" cy="391.49" r="16.72" fill="#8F3CDE" fill-opacity="0.82"/>
    <circle cx="468.91" cy="396.67" r="16.64" fill="#913CDC" fill-opacity="0.82"/>
    <circle cx="466.29" cy="402.04" r="16.57" fill="#933CDB" fill-opacity="0.82"/>
    <circle cx="463.34" cy="407.63" r="16.50" fill="#943DDA" fill-opacity="0.82"/>
    <circle cx="459.99" cy="413.49" r="16.42" fill="#963DD9" fill-opacity="0.82"/>
    <circle cx="456.17" cy="419.63" r="16.35" fill="#973DD8" fill-opacity="0.82"/>
    <circle cx="451.80" cy="426.03" r="16.28" fill="#993DD7" fill-opacity="0.82"/>
    <circle cx="446.79" cy="432.66" r="16.21" fill="#9A3DD5" fill-opacity="0.82"/>
    <circle cx="441.03" cy="439.45" r="16.13" fill="#9C3ED4" fill-opacity="0.82"/>
    <circle cx="434.45" cy="446.32" r="16.06" fill="#9D3ED3" fill-opacity="0.82"/>
    <circle cx="426.96" cy="453.14" r="15.99" fill="#9F3ED2" fill-opacity="0.82"/>
    <circle cx="418.50" cy="459.77" r="15.91" fill="#A03ED1" fill-opacity="0.82"/>
    <circle cx="409.04" cy="466.04" r="15.84" fill="#A23ED0" fill-opacity="0.82"/>
    <circle cx="398.57" cy="471.76" r="15.77" fill="#A33ECF" fill-opacity="0.82"/>
    <circle cx="387.12" cy="476.74" r="15.69" fill="#A53FCD" fill-opacity="0.82"/>
    <circle cx="374.78" cy="480.80" r="15.62" fill="#A63FCC" fill-opacity="0.82"/>
    <circle cx="361.67" cy="483.74" r="15.55" fill="#A83FCB" fill-opacity="0.82"/>
    <circle cx="347.93" cy="485.43" r="15.47" fill="#AA3FCA" fill-opacity="0.82"/>
    <circle cx="333.76" cy="485.75" r="15.40" fill="#AB3FC9" fill-opacity="0.82"/>
    <circle cx="319.36" cy="484.63" r="15.33" fill="#AD40C8" fill-opacity="0.82"/>
    <circle cx="304.97" cy="482.03" r="15.26" fill="#AE40C7" fill-opacity="0.82"/>
    <circle cx="290.81" cy="477.99" r="15.18" fill="#B040C5" fill-opacity="0.82"/>
    <circle cx="277.08" cy="472.57" r="15.11" fill="#B140C4" fill-opacity="0.82"/>
    <circle cx="263.97" cy="465.87" r="15.04" fill="#B340C3" fill-opacity="0.82"/>
    <circle cx="251.64" cy="458.04" r="14.96" fill="#B441C2" fill-opacity="0.82"/>
    <circle cx="240.21" cy="449.22" r="14.89" fill="#B641C1" fill-opacity="0.82"/>
    <circle cx="229.77" cy="439.57" r="14.82" fill="#B741C0" fill-opacity="0.82"/>
    <circle cx="220.36" cy="429.25" r="14.74" fill="#B941BE" fill-opacity="0.82"/>
    <circle cx="212.02" cy="418.40" r="14.67" fill="#BA41BD" fill-opacity="0.82"/>
    <circle cx="204.75" cy="407.13" r="14.60" fill="#BC42BC" fill-opacity="0.82"/>
    <circle cx="198.54" cy="395.54" r="14.53" fill="#BD42BB" fill-opacity="0.82"/>
    <circle cx="193.38" cy="383.70" r="14.45" fill="#BF42BA" fill-opacity="0.82"/>
    <circle cx="189.26" cy="371.65" r="14.38" fill="#C142B9" fill-opacity="0.82"/>
    <circle cx="186.16" cy="359.40" r="14.31" fill="#C242B8" fill-opacity="0.82"/>
    <circle cx="184.11" cy="346.97" r="14.23" fill="#C443B6" fill-opacity="0.82"/>
    <circle cx="183.13" cy="334.33" r="14.16" fill="#C543B5" fill-opacity="0.82"/>
    <circle cx="183.28" cy="321.48" r="14.09" fill="#C743B4" fill-opacity="0.82"/>
    <circle cx="184.61" cy="308.41" r="14.01" fill="#C843B3" fill-opacity="0.82"/>
    <circle cx="187.23" cy="295.12" r="13.94" fill="#CA43B2" fill-opacity="0.82"/>
    <circle cx="191.25" cy="281.65" r="13.87" fill="#CB43B1" fill-opacity="0.82"/>
    <circle cx="196.78" cy="268.07" r="13.79" fill="#CD44B0" fill-opacity="0.82"/>
    <circle cx="203.94" cy="254.48" r="13.72" fill="#CE44AE" fill-opacity="0.82"/>
    <circle cx="212.86" cy="241.05" r="13.65" fill="#D044AD" fill-opacity="0.82"/>
    <circle cx="223.62" cy="227.97" r="13.58" fill="#D144AC" fill-opacity="0.82"/>
    <circle cx="236.30" cy="215.51" r="13.50" fill="#D344AB" fill-opacity="0.82"/>
    <circle cx="250.89" cy="203.96" r="13.43" fill="#D445AA" fill-opacity="0.82"/>
    <circle cx="267.34" cy="193.66" r="13.36" fill="#D645A9" fill-opacity="0.82"/>
    <circle cx="285.54" cy="184.94" r="13.28" fill="#D845A7" fill-opacity="0.82"/>
    <circle cx="305.26" cy="178.14" r="13.21" fill="#D945A6" fill-opacity="0.82"/>
    <circle cx="326.22" cy="173.57" r="13.14" fill="#DB45A5" fill-opacity="0.82"/>
    <circle cx="348.05" cy="171.49" r="13.06" fill="#DC46A4" fill-opacity="0.82"/>
    <circle cx="370.34" cy="172.06" r="12.99" fill="#DE46A3" fill-opacity="0.82"/>
    <circle cx="392.60" cy="175.36" r="12.92" fill="#DF46A2" fill-opacity="0.82"/>
    <circle cx="414.37" cy="181.37" r="12.84" fill="#E146A1" fill-opacity="0.82"/>
    <circle cx="435.19" cy="189.95" r="12.77" fill="#E2469F" fill-opacity="0.82"/>
    <circle cx="454.65" cy="200.87" r="12.70" fill="#E4479E" fill-opacity="0.82"/>
    <circle cx="472.40" cy="213.81" r="12.63" fill="#E5479D" fill-opacity="0.82"/>
    <circle cx="488.19" cy="228.41" r="12.55" fill="#E7479C" fill-opacity="0.82"/>
    <circle cx="501.87" cy="244.24" r="12.48" fill="#E8479B" fill-opacity="0.82"/>
    <circle cx="513.38" cy="260.90" r="12.41" fill="#EA479A" fill-opacity="0.82"/>
    <circle cx="522.75" cy="278.00" r="12.33" fill="#EC4899" fill-opacity="0.82"/>
    <circle cx="530.08" cy="295.18" r="12.26" fill="#EC4997" fill-opacity="0.82"/>
    <circle cx="535.56" cy="312.15" r="12.19" fill="#EC4B95" fill-opacity="0.82"/>
    <circle cx="539.37" cy="328.67" r="12.11" fill="#EC4C94" fill-opacity="0.82"/>
    <circle cx="541.76" cy="344.59" r="12.04" fill="#EC4E92" fill-opacity="0.82"/>
    <circle cx="542.95" cy="359.79" r="11.97" fill="#ED5090" fill-opacity="0.82"/>
    <circle cx="543.15" cy="374.24" r="11.89" fill="#ED518F" fill-opacity="0.82"/>
    <circle cx="542.55" cy="387.95" r="11.82" fill="#ED538D" fill-opacity="0.82"/>
    <circle cx="541.31" cy="400.96" r="11.75" fill="#ED558C" fill-opacity="0.82"/>
    <circle cx="539.54" cy="413.37" r="11.68" fill="#ED568A" fill-opacity="0.82"/>
    <circle cx="537.33" cy="425.27" r="11.60" fill="#EE5888" fill-opacity="0.82"/>
    <circle cx="534.71" cy="436.77" r="11.53" fill="#EE5987" fill-opacity="0.82"/>
    <circle cx="531.68" cy="448.01" r="11.46" fill="#EE5B85" fill-opacity="0.82"/>
    <circle cx="528.19" cy="459.08" r="11.38" fill="#EE5D84" fill-opacity="0.82"/>
    <circle cx="524.18" cy="470.10" r="11.31" fill="#EE5E82" fill-opacity="0.82"/>
    <circle cx="519.53" cy="481.15" r="11.24" fill="#EF6080" fill-opacity="0.82"/>
    <circle cx="514.12" cy="492.30" r="11.16" fill="#EF627F" fill-opacity="0.82"/>
    <circle cx="507.80" cy="503.57" r="11.09" fill="#EF637D" fill-opacity="0.82"/>
    <circle cx="500.40" cy="514.95" r="11.02" fill="#EF657C" fill-opacity="0.82"/>
    <circle cx="491.75" cy="526.39" r="10.95" fill="#EF667A" fill-opacity="0.82"/>
    <circle cx="481.68" cy="537.78" r="10.87" fill="#F06878" fill-opacity="0.82"/>
    <circle cx="470.06" cy="548.95" r="10.80" fill="#F06A77" fill-opacity="0.82"/>
    <circle cx="456.78" cy="559.72" r="10.73" fill="#F06B75" fill-opacity="0.82"/>
    <circle cx="441.75" cy="569.81" r="10.65" fill="#F06D74" fill-opacity="0.82"/>
    <circle cx="424.98" cy="578.95" r="10.58" fill="#F06F72" fill-opacity="0.82"/>
    <circle cx="406.52" cy="586.81" r="10.51" fill="#F17070" fill-opacity="0.82"/>
    <circle cx="386.52" cy="593.10" r="10.43" fill="#F1726F" fill-opacity="0.82"/>
    <circle cx="365.19" cy="597.50" r="10.36" fill="#F1746D" fill-opacity="0.82"/>
    <circle cx="342.83" cy="599.77" r="10.29" fill="#F1756C" fill-opacity="0.82"/>
    <circle cx="319.81" cy="599.72" r="10.21" fill="#F1776A" fill-opacity="0.82"/>
    <circle cx="296.54" cy="597.23" r="10.14" fill="#F27868" fill-opacity="0.82"/>
    <circle cx="273.44" cy="592.29" r="10.07" fill="#F27A67" fill-opacity="0.82"/>
    <circle cx="250.96" cy="584.99" r="10.00" fill="#F27C65" fill-opacity="0.82"/>
    <circle cx="229.50" cy="575.51" r="9.92" fill="#F27D64" fill-opacity="0.82"/>
    <circle cx="209.41" cy="564.10" r="9.85" fill="#F27F62" fill-opacity="0.82"/>
    <circle cx="190.99" cy="551.10" r="9.78" fill="#F38160" fill-opacity="0.82"/>
    <circle cx="174.42" cy="536.87" r="9.70" fill="#F3825F" fill-opacity="0.82"/>
    <circle cx="159.84" cy="521.81" r="9.63" fill="#F3845D" fill-opacity="0.82"/>
    <circle cx="147.27" cy="506.29" r="9.56" fill="#F3855C" fill-opacity="0.82"/>
    <circle cx="136.66" cy="490.67" r="9.48" fill="#F4875A" fill-opacity="0.82"/>
    <circle cx="127.91" cy="475.24" r="9.41" fill="#F48958" fill-opacity="0.82"/>
    <circle cx="120.87" cy="460.26" r="9.34" fill="#F48A57" fill-opacity="0.55"/>
    <circle cx="115.37" cy="445.90" r="9.26" fill="#F48C55" fill-opacity="0.55"/>
    <circle cx="111.20" cy="432.28" r="9.19" fill="#F48E54" fill-opacity="0.55"/>
    <circle cx="108.18" cy="419.45" r="9.12" fill="#F58F52" fill-opacity="0.55"/>
    <circle cx="106.12" cy="407.40" r="9.05" fill="#F59150" fill-opacity="0.55"/>
    <circle cx="104.85" cy="396.06" r="8.97" fill="#F5924F" fill-opacity="0.55"/>
    <circle cx="104.24" cy="385.35" r="8.90" fill="#F5944D" fill-opacity="0.55"/>
    <circle cx="104.18" cy="375.13" r="8.83" fill="#F5964C" fill-opacity="0.55"/>
    <circle cx="104.56" cy="365.23" r="8.75" fill="#F6974A" fill-opacity="0.55"/>
    <circle cx="105.34" cy="355.48" r="8.68" fill="#F69948" fill-opacity="0.55"/>
    <circle cx="106.48" cy="345.72" r="8.61" fill="#F69B47" fill-opacity="0.55"/>
    <circle cx="107.98" cy="335.75" r="8.53" fill="#F69C45" fill-opacity="0.55"/>
    <circle cx="109.87" cy="325.42" r="8.46" fill="#F69E44" fill-opacity="0.55"/>
    <circle cx="112.22" cy="314.58" r="8.39" fill="#F7A042" fill-opacity="0.55"/>
    <circle cx="115.10" cy="303.09" r="8.32" fill="#F7A140" fill-opacity="0.55"/>
    <circle cx="118.63" cy="290.86" r="8.24" fill="#F7A33F" fill-opacity="0.55"/>
    <circle cx="122.96" cy="277.84" r="8.17" fill="#F7A43D" fill-opacity="0.55"/>
    <circle cx="128.24" cy="264.02" r="8.10" fill="#F7A63C" fill-opacity="0.55"/>
    <circle cx="134.67" cy="249.43" r="8.02" fill="#F8A83A" fill-opacity="0.55"/>
    <circle cx="142.41" cy="234.17" r="7.95" fill="#F8A938" fill-opacity="0.55"/>
    <circle cx="151.67" cy="218.38" r="7.88" fill="#F8AB37" fill-opacity="0.55"/>
    <circle cx="162.59" cy="202.26" r="7.80" fill="#F8AD35" fill-opacity="0.55"/>
    <circle cx="175.31" cy="186.06" r="7.73" fill="#F8AE34" fill-opacity="0.55"/>
    <circle cx="189.93" cy="170.09" r="7.66" fill="#F9B032" fill-opacity="0.55"/>
    <circle cx="206.46" cy="154.67" r="7.58" fill="#F9B130" fill-opacity="0.55"/>
    <circle cx="224.87" cy="140.13" r="7.51" fill="#F9B32F" fill-opacity="0.55"/>
    <circle cx="245.05" cy="126.82" r="7.44" fill="#F9B52D" fill-opacity="0.55"/>
    <circle cx="266.82" cy="115.03" r="7.37" fill="#F9B62C" fill-opacity="0.55"/>
    <circle cx="289.93" cy="105.05" r="7.29" fill="#FAB82A" fill-opacity="0.55"/>
    <circle cx="314.09" cy="97.08" r="7.22" fill="#FABA28" fill-opacity="0.55"/>
    <circle cx="338.94" cy="91.26" r="7.15" fill="#FABB27" fill-opacity="0.55"/>
    <circle cx="364.15" cy="87.65" r="7.07" fill="#FABD25" fill-opacity="0.55"/>
    <circle cx="389.35" cy="86.24" r="7.00" fill="#FBBF24" fill-opacity="0.55"/>
  </g>
  <circle cx="360" cy="360" r="5" fill="#ffffff" filter="url(#singularity)"/>
  <circle cx="360" cy="360" r="2.5" fill="#fff9c4"/>
  <g>
    <circle cx="449.2" cy="56.0" r="0.9" fill="#ffffff" fill-opacity="0.33"/>
    <circle cx="511.3" cy="473.1" r="1.7" fill="#ffffff" fill-opacity="0.28"/>
    <circle cx="310.0" cy="59.1" r="0.9" fill="#ffffff" fill-opacity="0.43"/>
    <circle cx="57.0" cy="167.3" r="1.4" fill="#ffffff" fill-opacity="0.44"/>
    <circle cx="181.1" cy="417.1" r="1.6" fill="#ffffff" fill-opacity="0.25"/>
    <circle cx="555.7" cy="486.8" r="1.0" fill="#ffffff" fill-opacity="0.30"/>
    <circle cx="652.6" cy="255.4" r="0.7" fill="#ffffff" fill-opacity="0.28"/>
    <circle cx="582.4" cy="426.4" r="1.6" fill="#ffffff" fill-opacity="0.51"/>
    <circle cx="383.2" cy="662.8" r="1.1" fill="#ffffff" fill-opacity="0.44"/>
    <circle cx="570.8" cy="435.9" r="1.6" fill="#ffffff" fill-opacity="0.45"/>
    <circle cx="490.9" cy="69.3" r="0.9" fill="#ffffff" fill-opacity="0.35"/>
    <circle cx="91.1" cy="189.0" r="0.7" fill="#ffffff" fill-opacity="0.35"/>
    <circle cx="446.8" cy="273.5" r="1.0" fill="#ffffff" fill-opacity="0.32"/>
    <circle cx="210.9" cy="639.5" r="1.4" fill="#ffffff" fill-opacity="0.46"/>
    <circle cx="149.5" cy="506.6" r="0.8" fill="#ffffff" fill-opacity="0.38"/>
    <circle cx="673.3" cy="449.6" r="1.3" fill="#ffffff" fill-opacity="0.49"/>
    <circle cx="579.4" cy="536.6" r="0.9" fill="#ffffff" fill-opacity="0.26"/>
    <circle cx="241.9" cy="211.4" r="0.9" fill="#ffffff" fill-opacity="0.58"/>
    <circle cx="600.9" cy="241.4" r="1.4" fill="#ffffff" fill-opacity="0.39"/>
    <circle cx="625.3" cy="333.7" r="0.9" fill="#ffffff" fill-opacity="0.34"/>
    <circle cx="399.3" cy="208.2" r="1.3" fill="#ffffff" fill-opacity="0.56"/>
    <circle cx="295.6" cy="180.4" r="1.8" fill="#ffffff" fill-opacity="0.43"/>
    <circle cx="98.2" cy="70.2" r="0.7" fill="#ffffff" fill-opacity="0.47"/>
    <circle cx="546.9" cy="310.2" r="0.7" fill="#ffffff" fill-opacity="0.38"/>
    <circle cx="677.5" cy="378.6" r="1.8" fill="#ffffff" fill-opacity="0.55"/>
    <circle cx="47.3" cy="501.3" r="1.4" fill="#ffffff" fill-opacity="0.44"/>
    <circle cx="210.8" cy="450.2" r="0.7" fill="#ffffff" fill-opacity="0.40"/>
    <circle cx="330.4" cy="650.4" r="1.7" fill="#ffffff" fill-opacity="0.34"/>
    <circle cx="360.4" cy="154.3" r="1.7" fill="#ffffff" fill-opacity="0.55"/>
    <circle cx="231.0" cy="448.9" r="1.3" fill="#ffffff" fill-opacity="0.30"/>
    <circle cx="528.0" cy="385.2" r="1.5" fill="#ffffff" fill-opacity="0.44"/>
    <circle cx="40.4" cy="247.5" r="0.6" fill="#ffffff" fill-opacity="0.58"/>
    <circle cx="602.4" cy="572.3" r="1.0" fill="#ffffff" fill-opacity="0.27"/>
    <circle cx="601.9" cy="646.0" r="0.7" fill="#ffffff" fill-opacity="0.42"/>
    <circle cx="84.3" cy="526.8" r="1.5" fill="#ffffff" fill-opacity="0.29"/>
  </g>
</svg>
