<?xml version="1.0" encoding="UTF-8"?>
<svg xmlns="http://www.w3.org/2000/svg" viewBox="0 0 720 720" width="720" height="720">
  <rect width="720" height="720" fill="#ffffff"/>

  <circle cx="373.84" cy="362.09" r="17.00" fill="#7C3AED" fill-opacity="0.35"/>
  <circle cx="376.74" cy="364.19" r="16.95" fill="#7C3AED" fill-opacity="0.35"/>
  <circle cx="379.34" cy="366.75" r="16.89" fill="#7C3AED" fill-opacity="0.36"/>
  <circle cx="381.58" cy="369.70" r="16.84" fill="#7C3AED" fill-opacity="0.36"/>
  <circle cx="383.41" cy="372.96" r="16.78" fill="#7C3AED" fill-opacity="0.36"/>
  <circle cx="384.81" cy="376.43" r="16.73" fill="#7C3AED" fill-opacity="0.36"/>
  <circle cx="385.76" cy="380.05" r="16.67" fill="#7C3AED" fill-opacity="0.37"/>
  <circle cx="386.24" cy="383.73" r="16.62" fill="#7C3AED" fill-opacity="0.37"/>
  <circle cx="386.25" cy="387.42" r="16.56" fill="#7C3AED" fill-opacity="0.37"/>
  <circle cx="385.78" cy="391.05" r="16.51" fill="#7C3AED" fill-opacity="0.38"/>
  <circle cx="384.82" cy="394.58" r="16.45" fill="#7C3AED" fill-opacity="0.38"/>
  <circle cx="383.38" cy="397.94" r="16.40" fill="#7C3AED" fill-opacity="0.38"/>
  <circle cx="381.46" cy="401.09" r="16.34" fill="#7C3AED" fill-opacity="0.39"/>
  <circle cx="379.04" cy="403.97" r="16.29" fill="#7C3AED" fill-opacity="0.39"/>
  <circle cx="376.15" cy="406.54" r="16.23" fill="#7C3AED" fill-opacity="0.39"/>
  <circle cx="372.81" cy="408.72" r="16.18" fill="#7C3AED" fill-opacity="0.39"/>
  <circle cx="369.03" cy="410.46" r="16.12" fill="#7C3AED" fill-opacity="0.40"/>
  <circle cx="364.86" cy="411.69" r="16.07" fill="#7C3AED" fill-opacity="0.40"/>
  <circle cx="360.37" cy="412.37" r="16.01" fill="#7C3AED" fill-opacity="0.40"/>
  <circle cx="355.62" cy="412.43" r="15.96" fill="#7C3AED" fill-opacity="0.41"/>
  <circle cx="350.70" cy="411.84" r="15.90" fill="#7C3AED" fill-opacity="0.41"/>
  <circle cx="345.74" cy="410.57" r="15.85" fill="#7C3AED" fill-opacity="0.41"/>
  <circle cx="340.83" cy="408.62" r="15.79" fill="#7C3AED" fill-opacity="0.42"/>
  <circle cx="336.10" cy="406.00" r="15.74" fill="#7C3AED" fill-opacity="0.42"/>
  <circle cx="331.66" cy="402.76" r="15.68" fill="#7C3AED" fill-opacity="0.42"/>
  <circle cx="327.64" cy="398.97" r="15.63" fill="#7C3AED" fill-opacity="0.42"/>
  <circle cx="324.10" cy="394.71" r="15.58" fill="#7C3AED" fill-opacity="0.43"/>
  <circle cx="321.12" cy="390.10" r="15.52" fill="#7C3AED" fill-opacity="0.43"/>
  <circle cx="318.73" cy="385.25" r="15.47" fill="#7C3AED" fill-opacity="0.43"/>
  <circle cx="316.94" cy="380.29" r="15.41" fill="#7C3AED" fill-opacity="0.44"/>
  <circle cx="315.73" cy="375.32" r="15.36" fill="#7C3AED" fill-opacity="0.44"/>
  <circle cx="315.06" cy="370.43" r="15.30" fill="#7C3AED" fill-opacity="0.44"/>
  <circle cx="314.86" cy="365.72" r="15.25" fill="#7C3AED" fill-opacity="0.44"/>
  <circle cx="315.04" cy="361.24" r="15.19" fill="#7C3AED" fill-opacity="0.45"/>
  <circle cx="315.53" cy="357.02" r="15.14" fill="#7C3AED" fill-opacity="0.45"/>
  <circle cx="316.24" cy="353.07" r="15.08" fill="#7C3AED" fill-opacity="0.45"/>
  <circle cx="317.09" cy="349.39" r="15.03" fill="#7C3AED" fill-opacity="0.46"/>
  <circle cx="318.00" cy="345.96" r="14.97" fill="#7C3AED" fill-opacity="0.46"/>
  <circle cx="318.93" cy="342.73" r="14.92" fill="#7C3AED" fill-opacity="0.46"/>
  <circle cx="319.82" cy="339.67" r="14.86" fill="#7C3AED" fill-opacity="0.47"/>
  <circle cx="320.63" cy="336.74" r="14.81" fill="#7C3AED" fill-opacity="0.47"/>
  <circle cx="321.36" cy="333.87" r="14.75" fill="#7C3AED" fill-opacity="0.47"/>
  <circle cx="322.00" cy="331.03" r="14.70" fill="#7C3AED" fill-opacity="0.47"/>
  <circle cx="322.54" cy="328.18" r="14.64" fill="#7C3AED" fill-opacity="0.48"/>
  <circle cx="323.01" cy="325.26" r="14.59" fill="#7C3AED" fill-opacity="0.48"/>
  <circle cx="323.44" cy="322.24" r="14.53" fill="#7C3AED" fill-opacity="0.48"/>
  <circle cx="323.85" cy="319.09" r="14.48" fill="#7C3AED" fill-opacity="0.49"/>
  <circle cx="324.31" cy="315.78" r="14.42" fill="#7C3AED" fill-opacity="0.49"/>
  <circle cx="324.86" cy="312.29" r="14.37" fill="#7C3AED" fill-opacity="0.49"/>
  <circle cx="325.58" cy="308.61" r="14.32" fill="#7C3AED" fill-opacity="0.50"/>
  <circle cx="326.55" cy="304.73" r="14.26" fill="#7C3AED" fill-opacity="0.50"/>
  <circle cx="327.84" cy="300.65" r="14.21" fill="#7C3AED" fill-opacity="0.50"/>
  <circle cx="329.54" cy="296.39" r="14.15" fill="#7C3AED" fill-opacity="0.50"/>
  <circle cx="331.75" cy="292.00" r="14.10" fill="#7C3AED" fill-opacity="0.51"/>
  <circle cx="334.57" cy="287.51" r="14.04" fill="#7C3AED" fill-opacity="0.51"/>
  <circle cx="338.06" cy="283.01" r="13.99" fill="#7C3AED" fill-opacity="0.51"/>
  <circle cx="342.32" cy="278.59" r="13.93" fill="#7C3AED" fill-opacity="0.52"/>
  <circle cx="347.39" cy="274.36" r="13.88" fill="#7C3AED" fill-opacity="0.52"/>
  <circle cx="353.29" cy="270.47" r="13.82" fill="#7C3AED" fill-opacity="0.52"/>
  <circle cx="360.04" cy="267.05" r="13.77" fill="#7C3AED" fill-opacity="0.53"/>
  <circle cx="367.58" cy="264.26" r="13.71" fill="#7C3AED" fill-opacity="0.53"/>
  <circle cx="375.85" cy="262.25" r="13.66" fill="#7C3AED" fill-opacity="0.53"/>
  <circle cx="384.72" cy="261.15" r="13.60" fill="#7C3AED" fill-opacity="0.53"/>
  <circle cx="394.03" cy="261.08" r="13.55" fill="#7C3AED" fill-opacity="0.54"/>
  <circle cx="403.62" cy="262.11" r="13.49" fill="#7C3AED" fill-opacity="0.54"/>
  <circle cx="413.26" cy="264.28" r="13.44" fill="#7C3AED" fill-opacity="0.54"/>
  <circle cx="422.76" cy="267.57" r="13.38" fill="#7C3AED" fill-opacity="0.55"/>
  <circle cx="431.90" cy="271.92" r="13.33" fill="#7C3AED" fill-opacity="0.55"/>
  <circle cx="440.50" cy="277.24" r="13.27" fill="#7C3AED" fill-opacity="0.55"/>
  <circle cx="448.40" cy="283.37" r="13.22" fill="#7C3AED" fill-opacity="0.55"/>
  <circle cx="455.48" cy="290.16" r="13.16" fill="#7C3AED" fill-opacity="0.56"/>
  <circle cx="461.67" cy="297.43" r="13.11" fill="#7C3AED" fill-opacity="0.56"/>
  <circle cx="466.91" cy="304.98" r="13.05" fill="#7C3AED" fill-opacity="0.56"/>
  <circle cx="471.21" cy="312.66" r="13.00" fill="#7C3AED" fill-opacity="0.57"/>
  <circle cx="474.61" cy="320.30" r="12.95" fill="#7C3AED" fill-opacity="0.57"/>
  <circle cx="477.16" cy="327.78" r="12.89" fill="#7C3AED" fill-opacity="0.57"/>
  <circle cx="478.94" cy="335.01" r="12.84" fill="#7C3AED" fill-opacity="0.58"/>
  <circle cx="480.04" cy="341.91" r="12.78" fill="#7C3AED" fill-opacity="0.58"/>
  <circle cx="480.54" cy="348.45" r="12.73" fill="#7C3AED" fill-opacity="0.58"/>
  <circle cx="480.53" cy="354.63" r="12.67" fill="#7C3AED" fill-opacity="0.58"/>
  <circle cx="480.09" cy="360.47" r="12.62" fill="#7C3AED" fill-opacity="0.59"/>
  <circle cx="479.29" cy="366.00" r="12.56" fill="#7C3AED" fill-opacity="0.59"/>
  <circle cx="478.18" cy="371.30" r="12.51" fill="#7C3AED" fill-opacity="0.59"/>
  <circle cx="476.80" cy="376.42" r="12.45" fill="#7C3AED" fill-opacity="0.60"/>
  <circle cx="475.18" cy="381.44" r="12.40" fill="#7C3AED" fill-opacity="0.60"/>
  <circle cx="473.33" cy="386.44" r="12.34" fill="#7C3AED" fill-opacity="0.60"/>
  <circle cx="471.25" cy="391.49" r="12.29" fill="#7C3AED" fill-opacity="0.61"/>
  <circle cx="468.91" cy="396.67" r="12.23" fill="#7C3AED" fill-opacity="0.61"/>
  <circle cx="466.29" cy="402.04" r="12.18" fill="#7C3AED" fill-opacity="0.61"/>
  <circle cx="463.34" cy="407.63" r="12.12" fill="#7C3AED" fill-opacity="0.61"/>
  <circle cx="459.99" cy="413.49" r="12.07" fill="#7C3AED" fill-opacity="0.62"/>
  <circle cx="456.17" cy="419.63" r="12.01" fill="#7C3AED" fill-opacity="0.62"/>
  <circle cx="451.80" cy="426.03" r="11.96" fill="#7C3AED" fill-opacity="0.62"/>
  <circle cx="446.79" cy="432.66" r="11.90" fill="#7C3AED" fill-opacity="0.63"/>
  <circle cx="441.03" cy="439.45" r="11.85" fill="#7C3AED" fill-opacity="0.63"/>
  <circle cx="434.45" cy="446.32" r="11.79" fill="#7C3AED" fill-opacity="0.63"/>
  <circle cx="426.96" cy="453.14" r="11.74" fill="#7C3AED" fill-opacity="0.63"/>
  <circle cx="418.50" cy="459.77" r="11.68" fill="#7C3AED" fill-opacity="0.64"/>
  <circle cx="409.04" cy="466.04" r="11.63" fill="#7C3AED" fill-opacity="0.64"/>
  <circle cx="398.57" cy="471.76" r="11.58" fill="#7C3AED" fill-opacity="0.64"/>
  <circle cx="387.12" cy="476.74" r="11.52" fill="#7C3AED" fill-opacity="0.65"/>
  <circle cx="374.78" cy="480.80" r="11.47" fill="#7C3AED" fill-opacity="0.65"/>
  <circle cx="361.67" cy="483.74" r="11.41" fill="#7C3AED" fill-opacity="0.65"/>
  <circle cx="347.93" cy="485.43" r="11.36" fill="#7C3AED" fill-opacity="0.66"/>
  <circle cx="333.76" cy="485.75" r="11.30" fill="#7C3AED" fill-opacity="0.66"/>
  <circle cx="319.36" cy="484.63" r="11.25" fill="#7C3AED" fill-opacity="0.66"/>
  <circle cx="304.97" cy="482.03" r="11.19" fill="#7C3AED" fill-opacity="0.66"/>
  <circle cx="290.81" cy="477.99" r="11.14" fill="#7C3AED" fill-opacity="0.67"/>
  <circle cx="277.08" cy="472.57" r="11.08" fill="#7C3AED" fill-opacity="0.67"/>
  <circle cx="263.97" cy="465.87" r="11.03" fill="#7C3AED" fill-opacity="0.67"/>
  <circle cx="251.64" cy="458.04" r="10.97" fill="#7C3AED" fill-opacity="0.68"/>
  <circle cx="240.21" cy="449.22" r="10.92" fill="#7C3AED" fill-opacity="0.68"/>
  <circle cx="229.77" cy="439.57" r="10.86" fill="#7C3AED" fill-opacity="0.68"/>
  <circle cx="220.36" cy="429.25" r="10.81" fill="#7C3AED" fill-opacity="0.69"/>
  <circle cx="212.02" cy="418.40" r="10.75" fill="#7C3AED" fill-opacity="0.69"/>
  <circle cx="204.75" cy="407.13" r="10.70" fill="#7C3AED" fill-opacity="0.69"/>
  <circle cx="198.54" cy="395.54" r="10.64" fill="#7C3AED" fill-opacity="0.69"/>
  <circle cx="193.38" cy="383.70" r="10.59" fill="#7C3AED" fill-opacity="0.70"/>
  <circle cx="189.26" cy="371.65" r="10.53" fill="#7C3AED" fill-opacity="0.70"/>
  <circle cx="186.16" cy="359.40" r="10.48" fill="#7C3AED" fill-opacity="0.70"/>
  <circle cx="184.11" cy="346.97" r="10.42" fill="#7C3AED" fill-opacity="0.71"/>
  <circle cx="183.13" cy="334.33" r="10.37" fill="#7C3AED" fill-opacity="0.71"/>
  <circle cx="183.28" cy="321.48" r="10.32" fill="#7C3AED" fill-opacity="0.71"/>
  <circle cx="184.61" cy="308.41" r="10.26" fill="#7C3AED" fill-opacity="0.72"/>
  <circle cx="187.23" cy="295.12" r="10.21" fill="#7C3AED" fill-opacity="0.72"/>
  <circle cx="191.25" cy="281.65" r="10.15" fill="#7C3AED" fill-opacity="0.72"/>
  <circle cx="196.78" cy="268.07" r="10.10" fill="#7C3AED" fill-opacity="0.72"/>
  <circle cx="203.94" cy="254.48" r="10.04" fill="#7C3AED" fill-opacity="0.73"/>
  <circle cx="212.86" cy="241.05" r="9.99" fill="#7C3AED" fill-opacity="0.73"/>
  <circle cx="223.62" cy="227.97" r="9.93" fill="#7C3AED" fill-opacity="0.73"/>
  <circle cx="236.30" cy="215.51" r="9.88" fill="#7C3AED" fill-opacity="0.74"/>
  <circle cx="250.89" cy="203.96" r="9.82" fill="#7C3AED" fill-opacity="0.74"/>
  <circle cx="267.34" cy="193.66" r="9.77" fill="#7C3AED" fill-opacity="0.74"/>
  <circle cx="285.54" cy="184.94" r="9.71" fill="#7C3AED" fill-opacity="0.74"/>
  <circle cx="305.26" cy="178.14" r="9.66" fill="#7C3AED" fill-opacity="0.75"/>
  <circle cx="326.22" cy="173.57" r="9.60" fill="#7C3AED" fill-opacity="0.75"/>
  <circle cx="348.05" cy="171.49" r="9.55" fill="#7C3AED" fill-opacity="0.75"/>
  <circle cx="370.34" cy="172.06" r="9.49" fill="#7C3AED" fill-opacity="0.76"/>
  <circle cx="392.60" cy="175.36" r="9.44" fill="#7C3AED" fill-opacity="0.76"/>
  <circle cx="414.37" cy="181.37" r="9.38" fill="#7C3AED" fill-opacity="0.76"/>
  <circle cx="435.19" cy="189.95" r="9.33" fill="#7C3AED" fill-opacity="0.77"/>
  <circle cx="454.65" cy="200.87" r="9.27" fill="#7C3AED" fill-opacity="0.77"/>
  <circle cx="472.40" cy="213.81" r="9.22" fill="#7C3AED" fill-opacity="0.77"/>
  <circle cx="488.19" cy="228.41" r="9.16" fill="#7C3AED" fill-opacity="0.77"/>
  <circle cx="501.87" cy="244.24" r="9.11" fill="#7C3AED" fill-opacity="0.78"/>
  <circle cx="513.38" cy="260.90" r="9.05" fill="#7C3AED" fill-opacity="0.78"/>
  <circle cx="522.75" cy="278.00" r="9.00" fill="#7C3AED" fill-opacity="0.78"/>
  <circle cx="530.08" cy="295.18" r="8.95" fill="#7C3AED" fill-opacity="0.79"/>
  <circle cx="535.56" cy="312.15" r="8.89" fill="#7C3AED" fill-opacity="0.79"/>
  <circle cx="539.37" cy="328.67" r="8.84" fill="#7C3AED" fill-opacity="0.79"/>
  <circle cx="541.76" cy="344.59" r="8.78" fill="#7C3AED" fill-opacity="0.80"/>
  <circle cx="542.95" cy="359.79" r="8.73" fill="#7C3AED" fill-opacity="0.80"/>
  <circle cx="543.15" cy="374.24" r="8.67" fill="#7C3AED" fill-opacity="0.80"/>
  <circle cx="542.55" cy="387.95" r="8.62" fill="#7C3AED" fill-opacity="0.80"/>
  <circle cx="541.31" cy="400.96" r="8.56" fill="#7C3AED" fill-opacity="0.81"/>
  <circle cx="539.54" cy="413.37" r="8.51" fill="#7C3AED" fill-opacity="0.81"/>
  <circle cx="537.33" cy="425.27" r="8.45" fill="#7C3AED" fill-opacity="0.81"/>
  <circle cx="534.71" cy="436.77" r="8.40" fill="#7C3AED" fill-opacity="0.82"/>
  <circle cx="531.68" cy="448.01" r="8.34" fill="#7C3AED" fill-opacity="0.82"/>
  <circle cx="528.19" cy="459.08" r="8.29" fill="#7C3AED" fill-opacity="0.82"/>
  <circle cx="524.18" cy="470.10" r="8.23" fill="#7C3AED" fill-opacity="0.82"/>
  <circle cx="519.53" cy="481.15" r="8.18" fill="#7C3AED" fill-opacity="0.83"/>
  <circle cx="514.12" cy="492.30" r="8.12" fill="#7C3AED" fill-opacity="0.83"/>
  <circle cx="507.80" cy="503.57" r="8.07" fill="#7C3AED" fill-opacity="0.83"/>
  <circle cx="500.40" cy="514.95" r="8.01" fill="#7C3AED" fill-opacity="0.84"/>
  <circle cx="491.75" cy="526.39" r="7.96" fill="#7C3AED" fill-opacity="0.84"/>
  <circle cx="481.68" cy="537.78" r="7.90" fill="#7C3AED" fill-opacity="0.84"/>
  <circle cx="470.06" cy="548.95" r="7.85" fill="#7C3AED" fill-opacity="0.85"/>
  <circle cx="456.78" cy="559.72" r="7.79" fill="#7C3AED" fill-opacity="0.85"/>
  <circle cx="441.75" cy="569.81" r="7.74" fill="#7C3AED" fill-opacity="0.85"/>
  <circle cx="424.98" cy="578.95" r="7.68" fill="#7C3AED" fill-opacity="0.85"/>
  <circle cx="406.52" cy="586.81" r="7.63" fill="#7C3AED" fill-opacity="0.86"/>
  <circle cx="386.52" cy="593.10" r="7.58" fill="#7C3AED" fill-opacity="0.86"/>
  <circle cx="365.19" cy="597.50" r="7.52" fill="#7C3AED" fill-opacity="0.86"/>
  <circle cx="342.83" cy="599.77" r="7.47" fill="#7C3AED" fill-opacity="0.87"/>
  <circle cx="319.81" cy="599.72" r="7.41" fill="#7C3AED" fill-opacity="0.87"/>
  <circle cx="296.54" cy="597.23" r="7.36" fill="#7C3AED" fill-opacity="0.87"/>
  <circle cx="273.44" cy="592.29" r="7.30" fill="#7C3AED" fill-opacity="0.88"/>
  <circle cx="250.96" cy="584.99" r="7.25" fill="#7C3AED" fill-opacity="0.88"/>
  <circle cx="229.50" cy="575.51" r="7.19" fill="#7C3AED" fill-opacity="0.88"/>
  <circle cx="209.41" cy="564.10" r="7.14" fill="#7C3AED" fill-opacity="0.88"/>
  <circle cx="190.99" cy="551.10" r="7.08" fill="#7C3AED" fill-opacity="0.89"/>
  <circle cx="174.42" cy="536.87" r="7.03" fill="#7C3AED" fill-opacity="0.89"/>
  <circle cx="159.84" cy="521.81" r="6.97" fill="#7C3AED" fill-opacity="0.89"/>
  <circle cx="147.27" cy="506.29" r="6.92" fill="#7C3AED" fill-opacity="0.90"/>
  <circle cx="136.66" cy="490.67" r="6.86" fill="#7C3AED" fill-opacity="0.90"/>
  <circle cx="127.91" cy="475.24" r="6.81" fill="#7C3AED" fill-opacity="0.90"/>
  <circle cx="120.87" cy="460.26" r="6.75" fill="#7C3AED" fill-opacity="0.91"/>
  <circle cx="115.37" cy="445.90" r="6.70" fill="#7C3AED" fill-opacity="0.91"/>
  <circle cx="111.20" cy="432.28" r="6.64" fill="#7C3AED" fill-opacity="0.91"/>
  <circle cx="108.18" cy="419.45" r="6.59" fill="#7C3AED" fill-opacity="0.91"/>
  <circle cx="106.12" cy="407.40" r="6.53" fill="#7C3AED" fill-opacity="0.92"/>
  <circle cx="104.85" cy="396.06" r="6.48" fill="#7C3AED" fill-opacity="0.92"/>
  <circle cx="104.24" cy="385.35" r="6.42" fill="#7C3AED" fill-opacity="0.92"/>
  <circle cx="104.18" cy="375.13" r="6.37" fill="#7C3AED" fill-opacity="0.93"/>
  <circle cx="104.56" cy="365.23" r="6.32" fill="#7C3AED" fill-opacity="0.93"/>
  <circle cx="105.34" cy="355.48" r="6.26" fill="#7C3AED" fill-opacity="0.93"/>
  <circle cx="106.48" cy="345.72" r="6.21" fill="#7C3AED" fill-opacity="0.93"/>
  <circle cx="107.98" cy="335.75" r="6.15" fill="#7C3AED" fill-opacity="0.94"/>
  <circle cx="109.87" cy="325.42" r="6.10" fill="#7C3AED" fill-opacity="0.94"/>
  <circle cx="112.22" cy="314.58" r="6.04" fill="#7C3AED" fill-opacity="0.94"/>
  <circle cx="115.10" cy="303.09" r="5.99" fill="#7C3AED" fill-opacity="0.95"/>
  <circle cx="118.63" cy="290.86" r="5.93" fill="#7C3AED" fill-opacity="0.95"/>
  <circle cx="122.96" cy="277.84" r="5.88" fill="#7C3AED" fill-opacity="0.95"/>
  <circle cx="128.24" cy="264.02" r="5.82" fill="#7C3AED" fill-opacity="0.96"/>
  <circle cx="134.67" cy="249.43" r="5.77" fill="#7C3AED" fill-opacity="0.96"/>
  <circle cx="142.41" cy="234.17" r="5.71" fill="#7C3AED" fill-opacity="0.96"/>
  <circle cx="151.67" cy="218.38" r="5.66" fill="#7C3AED" fill-opacity="0.96"/>
  <circle cx="162.59" cy="202.26" r="5.60" fill="#7C3AED" fill-opacity="0.97"/>
  <circle cx="175.31" cy="186.06" r="5.55" fill="#7C3AED" fill-opacity="0.97"/>
  <circle cx="189.93" cy="170.09" r="5.49" fill="#7C3AED" fill-opacity="0.97"/>
  <circle cx="206.46" cy="154.67" r="5.44" fill="#7C3AED" fill-opacity="0.98"/>
  <circle cx="224.87" cy="140.13" r="5.38" fill="#7C3AED" fill-opacity="0.98"/>
  <circle cx="245.05" cy="126.82" r="5.33" fill="#7C3AED" fill-opacity="0.98"/>
  <circle cx="266.82" cy="115.03" r="5.27" fill="#7C3AED" fill-opacity="0.99"/>
  <circle cx="289.93" cy="105.05" r="5.22" fill="#7C3AED" fill-opacity="0.99"/>
  <circle cx="314.09" cy="97.08" r="5.16" fill="#7C3AED" fill-opacity="0.99"/>
  <circle cx="338.94" cy="91.26" r="5.11" fill="#7C3AED" fill-opacity="0.99"/>
  <circle cx="364.15" cy="87.65" r="5.05" fill="#7C3AED" fill-opacity="1.00"/>
  <circle cx="389.35" cy="86.24" r="5.00" fill="#7C3AED" fill-opacity="1.00"/>
  <circle cx="360" cy="360" r="4" fill="#7C3AED"/>
</svg>
