<?xml version="1.0" encoding="UTF-8"?>
<svg xmlns="http://www.w3.org/2000/svg" viewBox="0 0 720 720" width="720" height="720">
  <rect width="720" height="720" fill="#ffffff"/>

  <path d="M 373.8 362.1 L 376.7 364.2 L 379.3 366.8 L 381.6 369.7 L 383.4 373.0 L 384.8 376.4 L 385.8 380.0 L 386.2 383.7 L 386.2 387.4 L 385.8 391.1 L 384.8 394.6 L 383.4 397.9 L 381.5 401.1 L 379.0 404.0 L 376.2 406.5 L 372.8 408.7 L 369.0 410.5 L 364.9 411.7 L 360.4 412.4 L 355.6 412.4 L 350.7 411.8 L 345.7 410.6 L 340.8 408.6 L 336.1 406.0 L 331.7 402.8 L 327.6 399.0 L 324.1 394.7 L 321.1 390.1 L 318.7 385.3 L 316.9 380.3 L 315.7 375.3 L 315.1 370.4 L 314.9 365.7 L 315.0 361.2 L 315.5 357.0 L 316.2 353.1 L 317.1 349.4 L 318.0 346.0 L 318.9 342.7 L 319.8 339.7 L 320.6 336.7 L 321.4 333.9 L 322.0 331.0 L 322.5 328.2 L 323.0 325.3 L 323.4 322.2 L 323.9 319.1 L 324.3 315.8 L 324.9 312.3 L 325.6 308.6 L 326.5 304.7 L 327.8 300.6 L 329.5 296.4 L 331.8 292.0 L 334.6 287.5 L 338.1 283.0" stroke="#00E5FF" stroke-width="28" fill="none" stroke-linecap="round" stroke-linejoin="round"/>
  <path d="M 338.1 283.0 L 342.3 278.6 L 347.4 274.4 L 353.3 270.5 L 360.0 267.0 L 367.6 264.3 L 375.8 262.2 L 384.7 261.2 L 394.0 261.1 L 403.6 262.1 L 413.3 264.3 L 422.8 267.6 L 431.9 271.9 L 440.5 277.2 L 448.4 283.4 L 455.5 290.2 L 461.7 297.4 L 466.9 305.0 L 471.2 312.7 L 474.6 320.3 L 477.2 327.8 L 478.9 335.0 L 480.0 341.9 L 480.5 348.4 L 480.5 354.6 L 480.1 360.5 L 479.3 366.0 L 478.2 371.3 L 476.8 376.4 L 475.2 381.4 L 473.3 386.4 L 471.2 391.5 L 468.9 396.7 L 466.3 402.0 L 463.3 407.6 L 460.0 413.5 L 456.2 419.6 L 451.8 426.0 L 446.8 432.7 L 441.0 439.4 L 434.4 446.3 L 427.0 453.1 L 418.5 459.8 L 409.0 466.0 L 398.6 471.8 L 387.1 476.7 L 374.8 480.8 L 361.7 483.7 L 347.9 485.4 L 333.8 485.8 L 319.4 484.6 L 305.0 482.0 L 290.8 478.0 L 277.1 472.6 L 264.0 465.9 L 251.6 458.0" stroke="#7C3AED" stroke-width="25" fill="none" stroke-linecap="round" stroke-linejoin="round"/>
  <path d="M 251.6 458.0 L 240.2 449.2 L 229.8 439.6 L 220.4 429.3 L 212.0 418.4 L 204.8 407.1 L 198.5 395.5 L 193.4 383.7 L 189.3 371.6 L 186.2 359.4 L 184.1 347.0 L 183.1 334.3 L 183.3 321.5 L 184.6 308.4 L 187.2 295.1 L 191.2 281.7 L 196.8 268.1 L 203.9 254.5 L 212.9 241.0 L 223.6 228.0 L 236.3 215.5 L 250.9 204.0 L 267.3 193.7 L 285.5 184.9 L 305.3 178.1 L 326.2 173.6 L 348.1 171.5 L 370.3 172.1 L 392.6 175.4 L 414.4 181.4 L 435.2 189.9 L 454.6 200.9 L 472.4 213.8 L 488.2 228.4 L 501.9 244.2 L 513.4 260.9 L 522.7 278.0 L 530.1 295.2 L 535.6 312.1 L 539.4 328.7 L 541.8 344.6 L 542.9 359.8 L 543.1 374.2 L 542.5 387.9 L 541.3 401.0 L 539.5 413.4 L 537.3 425.3 L 534.7 436.8 L 531.7 448.0 L 528.2 459.1 L 524.2 470.1 L 519.5 481.2 L 514.1 492.3 L 507.8 503.6 L 500.4 515.0 L 491.7 526.4" stroke="#EC4899" stroke-width="22" fill="none" stroke-linecap="round" stroke-linejoin="round"/>
  <path d="M 491.7 526.4 L 481.7 537.8 L 470.1 549.0 L 456.8 559.7 L 441.7 569.8 L 425.0 578.9 L 406.5 586.8 L 386.5 593.1 L 365.2 597.5 L 342.8 599.8 L 319.8 599.7 L 296.5 597.2 L 273.4 592.3 L 251.0 585.0 L 229.5 575.5 L 209.4 564.1 L 191.0 551.1 L 174.4 536.9 L 159.8 521.8 L 147.3 506.3 L 136.7 490.7 L 127.9 475.2 L 120.9 460.3 L 115.4 445.9 L 111.2 432.3 L 108.2 419.4 L 106.1 407.4 L 104.9 396.1 L 104.2 385.4 L 104.2 375.1 L 104.6 365.2 L 105.3 355.5 L 106.5 345.7 L 108.0 335.8 L 109.9 325.4 L 112.2 314.6 L 115.1 303.1 L 118.6 290.9 L 123.0 277.8 L 128.2 264.0 L 134.7 249.4 L 142.4 234.2 L 151.7 218.4 L 162.6 202.3 L 175.3 186.1 L 189.9 170.1 L 206.5 154.7 L 224.9 140.1 L 245.0 126.8 L 266.8 115.0 L 289.9 105.1 L 314.1 97.1 L 338.9 91.3 L 364.2 87.7 L 389.4 86.2" stroke="#FBBF24" stroke-width="19" fill="none" stroke-linecap="round" stroke-linejoin="round"/>
  <circle cx="360" cy="360" r="6" fill="#FBBF24"/>
  <circle cx="360" cy="360" r="3" fill="#ffffff"/>
</svg>
